<?xml version="1.0" encoding="UTF-8" standalone="no"?>
<!-- Created with Inkscape (http://www.inkscape.org/) -->

<svg
   xmlns:dc="http://purl.org/dc/elements/1.1/"
   xmlns:cc="http://creativecommons.org/ns#"
   xmlns:rdf="http://www.w3.org/1999/02/22-rdf-syntax-ns#"
   xmlns:svg="http://www.w3.org/2000/svg"
   xmlns="http://www.w3.org/2000/svg"
   xmlns:sodipodi="http://sodipodi.sourceforge.net/DTD/sodipodi-0.dtd"
   xmlns:inkscape="http://www.inkscape.org/namespaces/inkscape"
   width="228.27132mm"
   height="206.76317mm"
   viewBox="0 0 228.27132 206.76317"
   version="1.1"
   id="svg8"
   inkscape:version="0.92.4 5da689c313, 2019-01-14"
   sodipodi:docname="montre.svg">
  <defs
     id="defs2">
    <marker
       inkscape:stockid="TriangleOutM"
       orient="auto"
       refY="0"
       refX="0"
       id="marker1451"
       style="overflow:visible"
       inkscape:isstock="true">
      <path
         id="path1449"
         d="M 5.77,0 -2.88,5 V -5 Z"
         style="fill:#0000dc;fill-opacity:1;fill-rule:evenodd;stroke:#0000dc;stroke-width:1.00000003pt;stroke-opacity:1"
         transform="scale(0.4)"
         inkscape:connector-curvature="0" />
    </marker>
    <marker
       inkscape:isstock="true"
       style="overflow:visible"
       id="marker1289"
       refX="0"
       refY="0"
       orient="auto"
       inkscape:stockid="TriangleOutM"
       inkscape:collect="always">
      <path
         transform="scale(0.4)"
         style="fill:#0000dc;fill-opacity:1;fill-rule:evenodd;stroke:#0000dc;stroke-width:1.00000003pt;stroke-opacity:1"
         d="M 5.77,0 -2.88,5 V -5 Z"
         id="path1287"
         inkscape:connector-curvature="0" />
    </marker>
    <marker
       inkscape:stockid="TriangleOutM"
       orient="auto"
       refY="0"
       refX="0"
       id="TriangleOutM"
       style="overflow:visible"
       inkscape:isstock="true"
       inkscape:collect="always">
      <path
         id="path1110"
         d="M 5.77,0 -2.88,5 V -5 Z"
         style="fill:#0000dc;fill-opacity:1;fill-rule:evenodd;stroke:#0000dc;stroke-width:1.00000003pt;stroke-opacity:1"
         transform="scale(0.4)"
         inkscape:connector-curvature="0" />
    </marker>
    <marker
       inkscape:stockid="Arrow2Lend"
       orient="auto"
       refY="0"
       refX="0"
       id="Arrow2Lend"
       style="overflow:visible"
       inkscape:isstock="true">
      <path
         id="path986"
         style="fill:#0000dc;fill-opacity:1;fill-rule:evenodd;stroke:#0000dc;stroke-width:0.625;stroke-linejoin:round;stroke-opacity:1"
         d="M 8.7185878,4.0337352 -2.2072895,0.01601326 8.7185884,-4.0017078 c -1.7454984,2.3720609 -1.7354408,5.6174519 -6e-7,8.035443 z"
         transform="matrix(-1.1,0,0,-1.1,-1.1,0)"
         inkscape:connector-curvature="0" />
    </marker>
  </defs>
  <sodipodi:namedview
     id="base"
     pagecolor="#ffffff"
     bordercolor="#666666"
     borderopacity="1.0"
     inkscape:pageopacity="0.0"
     inkscape:pageshadow="2"
     inkscape:zoom="0.49497475"
     inkscape:cx="28.722712"
     inkscape:cy="-260.50622"
     inkscape:document-units="mm"
     inkscape:current-layer="layer1"
     showgrid="false"
     inkscape:snap-center="true"
     fit-margin-top="5"
     fit-margin-left="5"
     fit-margin-right="5"
     fit-margin-bottom="5"
     inkscape:window-width="3840"
     inkscape:window-height="2100"
     inkscape:window-x="0"
     inkscape:window-y="27"
     inkscape:window-maximized="1" />
  <metadata
     id="metadata5">
    <rdf:RDF>
      <cc:Work
         rdf:about="">
        <dc:format>image/svg+xml</dc:format>
        <dc:type
           rdf:resource="http://purl.org/dc/dcmitype/StillImage" />
        <dc:title></dc:title>
      </cc:Work>
    </rdf:RDF>
  </metadata>
  <g
     inkscape:label="Calque 1"
     inkscape:groupmode="layer"
     id="layer1"
     transform="translate(16.169123,-74.727875)">
    <path
       style="fill:none;stroke:#c0c0c0;stroke-width:10;stroke-linecap:butt;stroke-linejoin:miter;stroke-miterlimit:4;stroke-dasharray:none;stroke-opacity:1"
       d="M 436.58512,528.45543 468.93979,472.4155"
       id="path929"
       transform="scale(0.26458333)"
       inkscape:connector-curvature="0"
       sodipodi:nodetypes="cc" />
    <path
       style="fill:none;stroke:#c0c0c0;stroke-width:10;stroke-linecap:butt;stroke-linejoin:miter;stroke-miterlimit:4;stroke-dasharray:none;stroke-opacity:1"
       d="m 228.25172,889.29949 33.73457,-58.43"
       id="path882"
       transform="scale(0.26458333)"
       inkscape:connector-curvature="0"
       sodipodi:nodetypes="cc" />
    <path
       style="fill:none;stroke:#c0c0c0;stroke-width:10;stroke-linecap:butt;stroke-linejoin:miter;stroke-miterlimit:4;stroke-dasharray:none;stroke-opacity:1"
       d="m 500.44067,592.3931 55.37727,-31.97209"
       id="path917"
       transform="scale(0.26458333)"
       inkscape:connector-curvature="0"
       sodipodi:nodetypes="cc" />
    <path
       style="fill:none;stroke:#c0c0c0;stroke-width:10;stroke-linecap:butt;stroke-linejoin:miter;stroke-miterlimit:4;stroke-dasharray:none;stroke-opacity:1"
       d="m 142.38194,799.11844 55.74793,-32.18608"
       id="path884"
       transform="scale(0.26458333)"
       inkscape:connector-curvature="0"
       sodipodi:nodetypes="cc" />
    <path
       style="fill:none;stroke:#c0c0c0;stroke-width:10;stroke-linecap:butt;stroke-linejoin:miter;stroke-miterlimit:4;stroke-dasharray:none;stroke-opacity:1"
       d="m 500.49229,766.96163 57.89149,33.42366"
       id="path903"
       transform="scale(0.26458333)"
       inkscape:connector-curvature="0"
       sodipodi:nodetypes="cc" />
    <path
       style="fill:none;stroke:#c0c0c0;stroke-width:10;stroke-linecap:butt;stroke-linejoin:miter;stroke-miterlimit:4;stroke-dasharray:none;stroke-opacity:1"
       d="m 138.78535,558.13006 59.29225,34.23239"
       id="path886"
       transform="scale(0.26458333)"
       inkscape:connector-curvature="0"
       sodipodi:nodetypes="cc" />
    <path
       style="fill:none;stroke:#c0c0c0;stroke-width:10;stroke-linecap:butt;stroke-linejoin:miter;stroke-miterlimit:4;stroke-dasharray:none;stroke-opacity:1"
       d="m 436.55447,830.8164 29.78561,51.59017"
       id="path943"
       transform="scale(0.26458333)"
       inkscape:connector-curvature="0"
       sodipodi:nodetypes="cc" />
    <path
       style="fill:none;stroke:#c0c0c0;stroke-width:10;stroke-linecap:butt;stroke-linejoin:miter;stroke-miterlimit:4;stroke-dasharray:none;stroke-opacity:1"
       d="m 226.40056,466.8192 35.61635,61.68932"
       id="path888"
       transform="scale(0.26458333)"
       inkscape:connector-curvature="0"
       sodipodi:nodetypes="cc" />
    <g
       id="g14"
       transform="matrix(0.26458333,0,0,0.26458333,168.25492,-31.866406)" />
    <g
       id="g16"
       transform="matrix(0.26458333,0,0,0.26458333,168.25492,-31.866406)" />
    <g
       id="g18"
       transform="matrix(0.26458333,0,0,0.26458333,168.25492,-31.866406)" />
    <g
       id="g20"
       transform="matrix(0.26458333,0,0,0.26458333,168.25492,-31.866406)" />
    <g
       id="g22"
       transform="matrix(0.26458333,0,0,0.26458333,168.25492,-31.866406)" />
    <g
       id="g24"
       transform="matrix(0.26458333,0,0,0.26458333,168.25492,-31.866406)" />
    <g
       id="g26"
       transform="matrix(0.26458333,0,0,0.26458333,168.25492,-31.866406)" />
    <g
       id="g28"
       transform="matrix(0.26458333,0,0,0.26458333,168.25492,-31.866406)" />
    <g
       id="g30"
       transform="matrix(0.26458333,0,0,0.26458333,168.25492,-31.866406)" />
    <g
       id="g32"
       transform="matrix(0.26458333,0,0,0.26458333,168.25492,-31.866406)" />
    <g
       id="g34"
       transform="matrix(0.26458333,0,0,0.26458333,168.25492,-31.866406)" />
    <g
       id="g36"
       transform="matrix(0.26458333,0,0,0.26458333,168.25492,-31.866406)" />
    <g
       id="g38"
       transform="matrix(0.26458333,0,0,0.26458333,168.25492,-31.866406)" />
    <g
       id="g40"
       transform="matrix(0.26458333,0,0,0.26458333,168.25492,-31.866406)" />
    <g
       id="g42"
       transform="matrix(0.26458333,0,0,0.26458333,168.25492,-31.866406)" />
    <circle
       style="opacity:1;vector-effect:none;fill:none;fill-opacity:1;stroke:#000005;stroke-width:13.22916698;stroke-linecap:butt;stroke-linejoin:miter;stroke-miterlimit:4;stroke-dasharray:none;stroke-dashoffset:0;stroke-opacity:1"
       id="path874"
       cx="92.415176"
       cy="179.82736"
       r="62.36607" />
    <circle
       style="opacity:1;vector-effect:none;fill:#000000;fill-opacity:1;stroke:none;stroke-width:13.22916603;stroke-linecap:butt;stroke-linejoin:miter;stroke-miterlimit:4;stroke-dasharray:none;stroke-dashoffset:0;stroke-opacity:1"
       id="path876"
       cx="92.415176"
       cy="179.82736"
       r="6.6106496" />
    <path
       style="fill:none;stroke:#000000;stroke-width:3.96875;stroke-linecap:butt;stroke-linejoin:miter;stroke-miterlimit:4;stroke-dasharray:none;stroke-opacity:1"
       d="m 92.415176,220.7729 v 16.10899"
       id="path936"
       inkscape:connector-curvature="0"
       sodipodi:nodetypes="cc" />
    <path
       style="fill:none;stroke:#000000;stroke-width:3.96875;stroke-linecap:butt;stroke-linejoin:miter;stroke-miterlimit:4;stroke-dasharray:none;stroke-opacity:1"
       d="m 92.415174,122.63919 2e-6,16.24211"
       id="path878"
       inkscape:connector-curvature="0"
       sodipodi:nodetypes="cc" />
    <path
       style="fill:none;stroke:#000000;stroke-width:3.96875;stroke-linecap:butt;stroke-linejoin:miter;stroke-miterlimit:4;stroke-dasharray:none;stroke-opacity:1"
       d="m 133.36155,179.82736 h 16.04264"
       id="path910"
       inkscape:connector-curvature="0"
       sodipodi:nodetypes="cc" />
    <path
       style="fill:none;stroke:#000000;stroke-width:3.96875;stroke-linecap:butt;stroke-linejoin:miter;stroke-miterlimit:4;stroke-dasharray:none;stroke-opacity:1"
       d="M 35.158894,179.82736 H 51.469323"
       id="path880"
       inkscape:connector-curvature="0"
       sodipodi:nodetypes="cc" />
    <g
       aria-label="top"
       style="font-style:normal;font-variant:normal;font-weight:bold;font-stretch:condensed;font-size:20.15247917px;line-height:1.25;font-family:'IBM Plex Sans Condensed';-inkscape-font-specification:'IBM Plex Sans Condensed,  Bold Condensed';letter-spacing:0px;word-spacing:0px;fill:#000000;fill-opacity:1;stroke:none;stroke-width:0.26458332"
       id="text947">
      <path
         d="m 82.997352,93.169579 q -1.450978,0 -2.11601,-0.64488 -0.644879,-0.644879 -0.644879,-2.055553 v -5.682999 h -1.330064 v -2.19662 h 0.644879 q 0.56427,0 0.765794,-0.24183 0.201525,-0.24183 0.201525,-0.785946 v -1.833876 h 2.539213 v 2.861652 h 1.854028 v 2.19662 H 83.05781 v 6.186811 h 1.652503 v 2.196621 z"
         style="font-style:normal;font-variant:normal;font-weight:bold;font-stretch:condensed;font-family:'IBM Plex Sans Condensed';-inkscape-font-specification:'IBM Plex Sans Condensed,  Bold Condensed';stroke-width:0.26458332"
         id="path2475" />
      <path
         d="m 90.470773,93.411408 q -2.216772,0 -3.365464,-1.350216 -1.128539,-1.350216 -1.128539,-4.171563 0,-2.821347 1.128539,-4.171563 1.148692,-1.370369 3.365464,-1.370369 2.216773,0 3.345312,1.370369 1.148691,1.350216 1.148691,4.171563 0,2.821347 -1.148691,4.171563 -1.128539,1.350216 -3.345312,1.350216 z m 0,-2.236925 q 1.551741,0 1.551741,-1.813723 v -2.962414 q 0,-1.813724 -1.551741,-1.813724 -1.551741,0 -1.551741,1.813724 v 2.962414 q 0,1.813723 1.551741,1.813723 z"
         style="font-style:normal;font-variant:normal;font-weight:bold;font-stretch:condensed;font-family:'IBM Plex Sans Condensed';-inkscape-font-specification:'IBM Plex Sans Condensed,  Bold Condensed';stroke-width:0.26458332"
         id="path2477" />
      <path
         d="m 96.815025,82.589527 h 2.821347 v 1.753266 h 0.32244 q 0.08061,-0.423202 0.302288,-0.785947 0.24183,-0.362745 0.56427,-0.624727 0.32244,-0.282135 0.72549,-0.423202 0.40305,-0.16122 0.82625,-0.16122 1.83387,0 2.68028,1.390521 0.86656,1.390521 0.86656,4.151411 0,2.76089 -0.84641,4.151411 -0.8464,1.370368 -2.70043,1.370368 -0.4232,0 -0.82625,-0.16122 -0.40305,-0.141067 -0.72549,-0.403049 -0.32244,-0.282135 -0.56427,-0.644879 -0.22168,-0.362745 -0.302288,-0.785947 h -0.32244 v 5.783761 h -2.821347 z m 4.433545,8.524499 q 0.78595,0 1.24945,-0.48366 0.48366,-0.503812 0.48366,-1.410673 v -2.68028 q 0,-0.906862 -0.48366,-1.390521 -0.4635,-0.503812 -1.24945,-0.503812 -0.76579,0 -1.189,0.362744 -0.423198,0.342593 -0.423198,1.047929 v 3.647599 q 0,0.705337 0.423198,1.068082 0.42321,0.342592 1.189,0.342592 z"
         style="font-style:normal;font-variant:normal;font-weight:bold;font-stretch:condensed;font-family:'IBM Plex Sans Condensed';-inkscape-font-specification:'IBM Plex Sans Condensed,  Bold Condensed';stroke-width:0.26458332"
         id="path2479" />
    </g>
    <g
       aria-label="right"
       style="font-style:normal;font-variant:normal;font-weight:bold;font-stretch:condensed;font-size:20.15247917px;line-height:1.25;font-family:'IBM Plex Sans Condensed';-inkscape-font-specification:'IBM Plex Sans Condensed,  Bold Condensed';letter-spacing:0px;word-spacing:0px;fill:#000000;fill-opacity:1;stroke:none;stroke-width:0.26458332"
       id="text951">
      <path
         d="M 168.34866,185.37758 V 174.79753 H 171.17 v 2.25707 h 0.32244 q 0.0605,-0.44335 0.20153,-0.8464 0.14106,-0.4232 0.38289,-0.72549 0.26199,-0.32244 0.64488,-0.50381 0.3829,-0.18137 0.90687,-0.18137 h 0.50381 v 2.86165 h -0.72549 q -1.14869,0 -1.69281,0.32244 -0.54412,0.32244 -0.54412,1.2293 v 6.16666 z"
         style="font-style:normal;font-variant:normal;font-weight:bold;font-stretch:condensed;font-family:'IBM Plex Sans Condensed';-inkscape-font-specification:'IBM Plex Sans Condensed,  Bold Condensed';stroke-width:0.26458332"
         id="path2464" />
      <path
         d="m 177.15907,173.50777 q -0.86656,0 -1.26961,-0.36275 -0.3829,-0.38289 -0.3829,-1.02777 v -0.44336 q 0,-0.64488 0.3829,-1.00762 0.40305,-0.3829 1.26961,-0.3829 0.86655,0 1.24945,0.3829 0.40305,0.36274 0.40305,1.00762 v 0.44336 q 0,0.64488 -0.40305,1.02777 -0.3829,0.36275 -1.24945,0.36275 z m -1.41068,1.28976 h 2.82135 v 10.58005 h -2.82135 z"
         style="font-style:normal;font-variant:normal;font-weight:bold;font-stretch:condensed;font-family:'IBM Plex Sans Condensed';-inkscape-font-specification:'IBM Plex Sans Condensed,  Bold Condensed';stroke-width:0.26458332"
         id="path2466" />
      <path
         d="m 189.93007,186.20383 q 0,0.82625 -0.24183,1.47113 -0.24183,0.64488 -0.8464,1.08824 -0.58442,0.44335 -1.59205,0.66503 -1.00762,0.22167 -2.53921,0.22167 -1.30991,0 -2.17647,-0.18137 -0.86656,-0.16122 -1.41067,-0.48366 -0.52397,-0.30228 -0.74564,-0.76579 -0.22168,-0.46351 -0.22168,-1.04793 0,-0.76579 0.46351,-1.2293 0.4635,-0.44336 1.35021,-0.58442 v -0.42321 q -0.76579,-0.14106 -1.10838,-0.62472 -0.3426,-0.48366 -0.3426,-1.16885 0,-0.36274 0.14107,-0.64488 0.16122,-0.28213 0.40305,-0.48366 0.26198,-0.20152 0.58442,-0.34259 0.32244,-0.14106 0.66503,-0.22167 v -0.28214 q -0.88671,-0.4232 -1.28975,-1.189 -0.40305,-0.76579 -0.40305,-1.85402 0,-1.67266 0.96731,-2.61983 0.96732,-0.94716 3.16394,-0.94716 0.42321,0 0.82626,0.0806 0.4232,0.0605 0.78594,0.18137 v -0.3829 q 0,-0.8061 0.3829,-1.18899 0.3829,-0.3829 1.08823,-0.3829 h 1.51144 v 2.11601 h -2.13616 v 0.32244 q 0.82625,0.34259 1.24945,1.06808 0.44335,0.72549 0.44335,1.75327 0,1.6525 -0.96731,2.59967 -0.96732,0.92701 -3.1841,0.92701 -0.50381,0 -0.94716,-0.0403 -0.4232,-0.0605 -0.82625,-0.16122 -0.32244,0.28213 -0.32244,0.90686 0,0.40305 0.24183,0.60457 0.26198,0.20153 0.86655,0.20153 h 2.8415 q 1.79357,0 2.55937,0.8061 0.76579,0.78594 0.76579,2.23692 z m -2.63997,0.36275 q 0,-0.48366 -0.3426,-0.74565 -0.32244,-0.26198 -1.08823,-0.26198 h -3.28485 q -0.14107,0.20153 -0.22168,0.46351 -0.0605,0.26198 -0.0605,0.54412 0,0.58442 0.40305,0.8867 0.4232,0.30229 1.53159,0.30229 h 1.12854 q 1.10838,0 1.51143,-0.30229 0.42321,-0.30228 0.42321,-0.8867 z m -2.53922,-6.79139 q 0.82626,0 1.16885,-0.3829 0.36274,-0.38289 0.36274,-1.12854 v -0.32244 q 0,-0.74564 -0.36274,-1.12853 -0.34259,-0.3829 -1.16885,-0.3829 -0.82625,0 -1.18899,0.3829 -0.34259,0.38289 -0.34259,1.12853 v 0.32244 q 0,0.74565 0.34259,1.12854 0.36274,0.3829 1.18899,0.3829 z"
         style="font-style:normal;font-variant:normal;font-weight:bold;font-stretch:condensed;font-family:'IBM Plex Sans Condensed';-inkscape-font-specification:'IBM Plex Sans Condensed,  Bold Condensed';stroke-width:0.26458332"
         id="path2468" />
      <path
         d="m 191.05955,170.46474 h 2.82135 v 6.12636 h 0.32244 q 0.12092,-0.4232 0.32244,-0.78595 0.22168,-0.36274 0.52397,-0.64488 0.30228,-0.28213 0.70533,-0.44335 0.40305,-0.16122 0.94717,-0.16122 1.41067,0 2.15631,0.96732 0.74565,0.94716 0.74565,2.66012 v 7.19444 h -2.82135 v -6.65032 q 0,-1.87418 -1.30991,-1.87418 -0.64488,0 -1.12854,0.40305 -0.46351,0.3829 -0.46351,1.08823 v 7.03322 h -2.82135 z"
         style="font-style:normal;font-variant:normal;font-weight:bold;font-stretch:condensed;font-family:'IBM Plex Sans Condensed';-inkscape-font-specification:'IBM Plex Sans Condensed,  Bold Condensed';stroke-width:0.26458332"
         id="path2470" />
      <path
         d="m 205.1877,185.37758 q -1.45098,0 -2.11601,-0.64488 -0.64488,-0.64488 -0.64488,-2.05555 v -5.683 h -1.33006 v -2.19662 h 0.64488 q 0.56427,0 0.76579,-0.24183 0.20153,-0.24183 0.20153,-0.78595 v -1.83387 h 2.53921 v 2.86165 h 1.85403 v 2.19662 h -1.85403 v 6.18681 h 1.6525 v 2.19662 z"
         style="font-style:normal;font-variant:normal;font-weight:bold;font-stretch:condensed;font-family:'IBM Plex Sans Condensed';-inkscape-font-specification:'IBM Plex Sans Condensed,  Bold Condensed';stroke-width:0.26458332"
         id="path2472" />
    </g>
    <g
       aria-label="bottom"
       style="font-style:normal;font-variant:normal;font-weight:bold;font-stretch:condensed;font-size:20.15247917px;line-height:1.25;font-family:'IBM Plex Sans Condensed';-inkscape-font-specification:'IBM Plex Sans Condensed,  Bold Condensed';letter-spacing:0px;word-spacing:0px;fill:#000000;fill-opacity:1;stroke:none;stroke-width:0.26458332"
       id="text955">
      <path
         d="m 62.888962,261.33637 h 2.821347 v 6.08605 h 0.322439 q 0.08061,-0.4232 0.302288,-0.78595 0.241829,-0.36274 0.564269,-0.62472 0.32244,-0.28214 0.725489,-0.4232 0.40305,-0.16122 0.826252,-0.16122 1.833875,0 2.68028,1.39052 0.866556,1.39052 0.866556,4.15141 0,2.76089 -0.846404,4.15141 -0.846404,1.37037 -2.700432,1.37037 -0.423202,0 -0.826252,-0.16122 -0.403049,-0.14107 -0.725489,-0.40305 -0.32244,-0.28214 -0.564269,-0.64488 -0.221678,-0.36275 -0.302288,-0.78595 h -0.322439 v 1.75327 h -2.821347 z m 4.433545,12.85728 q 0.785947,0 1.249454,-0.48366 0.483659,-0.50381 0.483659,-1.41067 v -2.68028 q 0,-0.90686 -0.483659,-1.39052 -0.463507,-0.50381 -1.249454,-0.50381 -0.765794,0 -1.188996,0.36274 -0.423202,0.34259 -0.423202,1.04793 v 3.6476 q 0,0.70534 0.423202,1.06808 0.423202,0.34259 1.188996,0.34259 z"
         style="font-style:normal;font-variant:normal;font-weight:bold;font-stretch:condensed;font-family:'IBM Plex Sans Condensed';-inkscape-font-specification:'IBM Plex Sans Condensed,  Bold Condensed';stroke-width:0.26458332"
         id="path2451" />
      <path
         d="m 77.877998,276.49104 q -2.216773,0 -3.365465,-1.35022 -1.128538,-1.35022 -1.128538,-4.17156 0,-2.82135 1.128538,-4.17157 1.148692,-1.37036 3.365465,-1.37036 2.216772,0 3.345311,1.37036 1.148691,1.35022 1.148691,4.17157 0,2.82134 -1.148691,4.17156 -1.128539,1.35022 -3.345311,1.35022 z m 0,-2.23693 q 1.55174,0 1.55174,-1.81372 v -2.96242 q 0,-1.81372 -1.55174,-1.81372 -1.551741,0 -1.551741,1.81372 v 2.96242 q 0,1.81372 1.551741,1.81372 z"
         style="font-style:normal;font-variant:normal;font-weight:bold;font-stretch:condensed;font-family:'IBM Plex Sans Condensed';-inkscape-font-specification:'IBM Plex Sans Condensed,  Bold Condensed';stroke-width:0.26458332"
         id="path2453" />
      <path
         d="m 87.368869,276.24921 q -1.450978,0 -2.11601,-0.64488 -0.644879,-0.64488 -0.644879,-2.05556 v -5.68299 h -1.330064 v -2.19663 h 0.644879 q 0.56427,0 0.765795,-0.24182 0.201524,-0.24183 0.201524,-0.78595 v -1.83388 h 2.539213 v 2.86165 h 1.854028 v 2.19663 h -1.854028 v 6.18681 h 1.652503 v 2.19662 z"
         style="font-style:normal;font-variant:normal;font-weight:bold;font-stretch:condensed;font-family:'IBM Plex Sans Condensed';-inkscape-font-specification:'IBM Plex Sans Condensed,  Bold Condensed';stroke-width:0.26458332"
         id="path2455" />
      <path
         d="m 94.178203,276.24921 q -1.450978,0 -2.11601,-0.64488 -0.64488,-0.64488 -0.64488,-2.05556 v -5.68299 H 90.08725 v -2.19663 h 0.644879 q 0.56427,0 0.765794,-0.24182 0.201525,-0.24183 0.201525,-0.78595 v -1.83388 h 2.539213 v 2.86165 h 1.854028 v 2.19663 h -1.854028 v 6.18681 h 1.652503 v 2.19662 z"
         style="font-style:normal;font-variant:normal;font-weight:bold;font-stretch:condensed;font-family:'IBM Plex Sans Condensed';-inkscape-font-specification:'IBM Plex Sans Condensed,  Bold Condensed';stroke-width:0.26458332"
         id="path2457" />
      <path
         d="m 101.65162,276.49104 q -2.216769,0 -3.36546,-1.35022 -1.128539,-1.35022 -1.128539,-4.17156 0,-2.82135 1.128539,-4.17157 1.148691,-1.37036 3.36546,-1.37036 2.21678,0 3.34532,1.37036 1.14869,1.35022 1.14869,4.17157 0,2.82134 -1.14869,4.17156 -1.12854,1.35022 -3.34532,1.35022 z m 0,-2.23693 q 1.55174,0 1.55174,-1.81372 v -2.96242 q 0,-1.81372 -1.55174,-1.81372 -1.55174,0 -1.55174,1.81372 v 2.96242 q 0,1.81372 1.55174,1.81372 z"
         style="font-style:normal;font-variant:normal;font-weight:bold;font-stretch:condensed;font-family:'IBM Plex Sans Condensed';-inkscape-font-specification:'IBM Plex Sans Condensed,  Bold Condensed';stroke-width:0.26458332"
         id="path2459" />
      <path
         d="m 107.99588,276.24921 v -10.58006 h 2.82134 v 1.79358 h 0.32244 q 0.12092,-0.42321 0.32244,-0.78595 0.22168,-0.36275 0.50381,-0.64488 0.30229,-0.28214 0.70534,-0.44335 0.40305,-0.16122 0.92702,-0.16122 1.02777,0 1.63235,0.56426 0.60457,0.54412 0.88671,1.5719 h 0.26198 q 0.34259,-1.10839 1.06808,-1.6122 0.74564,-0.52396 1.71296,-0.52396 1.35022,0 2.05555,0.96731 0.72549,0.96732 0.72549,2.66013 v 7.19444 h -2.82135 v -6.65032 q 0,-1.87418 -1.2293,-1.87418 -0.62472,0 -1.06808,0.40305 -0.44335,0.38289 -0.44335,1.08823 v 7.03322 h -2.82135 v -6.65032 q 0,-1.87418 -1.2293,-1.87418 -0.62473,0 -1.06808,0.40305 -0.44336,0.38289 -0.44336,1.08823 v 7.03322 z"
         style="font-style:normal;font-variant:normal;font-weight:bold;font-stretch:condensed;font-family:'IBM Plex Sans Condensed';-inkscape-font-specification:'IBM Plex Sans Condensed,  Bold Condensed';stroke-width:0.26458332"
         id="path2461" />
    </g>
    <g
       aria-label="left"
       style="font-style:normal;font-variant:normal;font-weight:bold;font-stretch:condensed;font-size:20.15247917px;line-height:1.25;font-family:'IBM Plex Sans Condensed';-inkscape-font-specification:'IBM Plex Sans Condensed,  Bold Condensed';letter-spacing:0px;word-spacing:0px;fill:#000000;fill-opacity:1;stroke:none;stroke-width:0.26458332"
       id="text959">
      <path
         d="m -8.4283858,185.37758 q -1.4711309,0 -2.1160102,-0.64488 -0.624727,-0.66503 -0.624727,-2.01525 v -12.25271 h 2.8213472 v 12.71622 h 1.1889962 v 2.19662 z"
         style="font-style:normal;font-variant:normal;font-weight:bold;font-stretch:condensed;font-family:'IBM Plex Sans Condensed';-inkscape-font-specification:'IBM Plex Sans Condensed,  Bold Condensed';stroke-width:0.26458332"
         id="path2442" />
      <path
         d="m -1.4083955,185.61941 q -2.1764677,0 -3.4863789,-1.37037 -1.2897586,-1.39052 -1.2897586,-4.15141 0,-2.82135 1.1285388,-4.17156 1.1486913,-1.37037 3.365464,-1.37037 2.21677273,0 3.3453116,1.37037 1.1486913,1.35021 1.1486913,4.17156 v 0.68518 h -6.0457438 v 0.66504 q 0,0.8867 0.544117,1.43082 0.5441169,0.52397 1.4912834,0.52397 0.78594671,0 1.33006364,-0.3426 0.56426942,-0.36274 1.02777646,-0.98747 l 1.430826,1.67266 q -0.6448793,0.86655 -1.65250329,1.37037 -0.98747148,0.50381 -2.33768761,0.50381 z m -0.2821347,-8.9477 q -1.5517409,0 -1.5517409,1.81372 v 0.64488 h 3.10348181 v -0.64488 q 0,-1.81372 -1.55174091,-1.81372 z"
         style="font-style:normal;font-variant:normal;font-weight:bold;font-stretch:condensed;font-family:'IBM Plex Sans Condensed';-inkscape-font-specification:'IBM Plex Sans Condensed,  Bold Condensed';stroke-width:0.26458332"
         id="path2444" />
      <path
         d="M 5.1575345,176.99415 H 3.8274709 v -2.19662 h 1.3300636 v -1.24946 q 0,-1.57189 0.7053368,-2.31753 0.7053368,-0.7658 2.1764677,-0.7658 h 1.8540281 v 2.19662 H 7.9788816 v 2.13617 h 1.9144855 v 2.19662 H 7.9788816 v 8.38343 H 5.1575345 Z"
         style="font-style:normal;font-variant:normal;font-weight:bold;font-stretch:condensed;font-family:'IBM Plex Sans Condensed';-inkscape-font-specification:'IBM Plex Sans Condensed,  Bold Condensed';stroke-width:0.26458332"
         id="path2446" />
      <path
         d="m 14.806478,185.37758 q -1.450978,0 -2.11601,-0.64488 -0.64488,-0.64488 -0.64488,-2.05555 v -5.683 h -1.330063 v -2.19662 h 0.644879 q 0.56427,0 0.765794,-0.24183 0.201525,-0.24183 0.201525,-0.78595 v -1.83387 h 2.539212 v 2.86165 h 1.854029 v 2.19662 h -1.854029 v 6.18681 h 1.652504 v 2.19662 z"
         style="font-style:normal;font-variant:normal;font-weight:bold;font-stretch:condensed;font-family:'IBM Plex Sans Condensed';-inkscape-font-specification:'IBM Plex Sans Condensed,  Bold Condensed';stroke-width:0.26458332"
         id="path2448" />
    </g>
    <path
       style="opacity:1;vector-effect:none;fill:none;fill-opacity:1;stroke:#0000dc;stroke-width:3.96875;stroke-linecap:butt;stroke-linejoin:miter;stroke-miterlimit:4;stroke-dasharray:none;stroke-dashoffset:0;stroke-opacity:1;marker-end:url(#TriangleOutM)"
       id="circle963"
       sodipodi:type="arc"
       sodipodi:cx="92.415176"
       sodipodi:cy="179.82736"
       sodipodi:rx="91.765717"
       sodipodi:ry="91.765717"
       sodipodi:start="4.9959635"
       sodipodi:end="6.0266697"
       d="m 118.09023,91.726634 a 91.765717,91.765717 0 0 1 63.08808,64.818686"
       sodipodi:open="true" />
    <path
       sodipodi:open="true"
       d="m 193.08836,-183.21767 a 91.765717,91.765717 0 0 1 66.89091,46.11896"
       sodipodi:end="5.7746132"
       sodipodi:start="4.857406"
       sodipodi:ry="91.765717"
       sodipodi:rx="91.765717"
       sodipodi:cy="-92.415176"
       sodipodi:cx="179.82736"
       sodipodi:type="arc"
       id="path1285"
       style="opacity:1;vector-effect:none;fill:none;fill-opacity:1;stroke:#0000dc;stroke-width:3.96875;stroke-linecap:butt;stroke-linejoin:miter;stroke-miterlimit:4;stroke-dasharray:none;stroke-dashoffset:0;stroke-opacity:1;marker-end:url(#marker1289)"
       inkscape:transform-center-x="-55.691382"
       inkscape:transform-center-y="57.219093"
       transform="rotate(90)" />
    <path
       transform="scale(-1)"
       inkscape:transform-center-y="55.691382"
       inkscape:transform-center-x="57.219094"
       style="opacity:1;vector-effect:none;fill:none;fill-opacity:1;stroke:#0000dc;stroke-width:3.96875;stroke-linecap:butt;stroke-linejoin:miter;stroke-miterlimit:4;stroke-dasharray:none;stroke-dashoffset:0;stroke-opacity:1;marker-end:url(#marker1451)"
       id="path1447"
       sodipodi:type="arc"
       sodipodi:cx="-92.415176"
       sodipodi:cy="-179.82736"
       sodipodi:rx="91.765717"
       sodipodi:ry="91.765717"
       sodipodi:start="5.107865"
       sodipodi:end="6.0266697"
       d="m -57.062663,-264.50998 a 91.765717,91.765717 0 0 1 53.4106179,61.40058"
       sodipodi:open="true" />
    <path
       style="fill:none;stroke:#000000;stroke-width:5;stroke-linecap:round;stroke-linejoin:miter;stroke-opacity:1;stroke-miterlimit:4;stroke-dasharray:none"
       d="M 92.415174,179.82736 V 143.7136"
       id="path2438"
       inkscape:connector-curvature="0" />
    <path
       inkscape:connector-curvature="0"
       id="path2440"
       d="m 92.415178,179.82736 24.888442,0"
       style="fill:none;stroke:#000000;stroke-width:5;stroke-linecap:round;stroke-linejoin:miter;stroke-miterlimit:4;stroke-dasharray:none;stroke-opacity:1"
       inkscape:transform-center-x="-18.056883"
       inkscape:transform-center-y="-1.7253807e-06"
       sodipodi:nodetypes="cc" />
  </g>
</svg>
