<svg xmlns="http://www.w3.org/2000/svg" viewBox="0 0 420 400"><rect width="100%" height="100%" fill="#fff"/><path fill="#009fe3" d="M340 144a130 130 0 10-260 0"/><path fill="#e6007e" d="M80 144a130 130 0 10130 225"/><path fill="#ffed00" d="M210 369a130 130 0 10130-225"/><path fill="#302883" d="M210 144c-40-23-90-23-130 0 0 46 25 89 65 113"/><path fill="#e40815" d="M145 257c0 46 25 89 65 112 40-23 65-66 65-112"/><path fill="#009641" d="M275 257c40-24 65-67 65-113-40-23-90-23-130 0"/><path d="M210 144c-40 23-65 66-65 113 40 23 90 23 130 0 0-47-25-90-65-113"/></svg>