<svg xmlns="http://www.w3.org/2000/svg" viewBox="0 0 420 400"><rect width="100%" height="100%"/><path fill="#0f0" d="M340 144a130 130 0 10-260 0"/><path fill="#00f" d="M80 144a130 130 0 10130 225"/><path fill="red" d="M210 369a130 130 0 10130-225"/><path fill="#0ff" d="M210 144c-40-23-90-23-130 0 0 46 25 89 65 113"/><path fill="#f0f" d="M145 257c0 46 25 89 65 112 40-23 65-66 65-112"/><path fill="#ff0" d="M275 257c40-24 65-67 65-113-40-23-90-23-130 0"/><path fill="#fff" d="M210 144c-40 23-65 66-65 113 40 23 90 23 130 0 0-47-25-90-65-113"/></svg>